<?xml version="1.0" standalone="no"?>
<!DOCTYPE svg PUBLIC "-//W3C//DTD SVG 20010904//EN"
 "http://www.w3.org/TR/2001/REC-SVG-20010904/DTD/svg10.dtd">
<svg version="1.0" xmlns="http://www.w3.org/2000/svg"
 width="1000.000000pt" height="1000.000000pt" viewBox="0 0 1000.000000 1000.000000"
 preserveAspectRatio="xMidYMid meet">
<metadata>
Created by potrace 1.14, written by Peter Selinger 2001-2017
</metadata>
<g transform="translate(0.000000,1000.000000) scale(0.100000,-0.100000)"
fill="#000000" stroke="none">
<path d="M8705 9093 c-243 -87 -497 -432 -670 -908 -48 -132 -169 -406 -227
-515 -133 -248 -338 -539 -517 -733 -59 -63 -186 -177 -199 -177 -4 0 -20 46
-35 103 -86 311 -273 599 -535 822 -51 44 -125 102 -165 128 -96 66 -306 167
-442 213 -60 20 -112 39 -114 41 -2 1 1 15 8 30 23 50 30 125 15 161 -11 27
-18 32 -48 32 -40 0 -167 -38 -250 -75 l-55 -24 9 25 c22 57 7 104 -33 104
-36 0 -222 -58 -314 -98 l-91 -40 5 53 c7 64 -1 101 -23 109 -17 6 -54 -19
-54 -36 0 -19 -89 -147 -113 -163 -13 -8 -67 -22 -118 -30 -241 -36 -414 -88
-616 -185 -264 -127 -470 -297 -660 -545 -49 -65 -150 -242 -184 -324 -17 -42
-47 -127 -65 -190 -19 -63 -36 -116 -37 -118 -2 -1 -28 15 -57 37 -210 157
-522 516 -719 830 -40 63 -122 216 -183 340 -60 124 -141 288 -179 365 -151
308 -370 578 -547 675 -226 124 -447 90 -639 -97 -139 -136 -277 -424 -338
-705 -26 -121 -33 -301 -17 -422 l7 -50 170 -41 c200 -49 239 -66 229 -98 -17
-57 -124 -233 -211 -350 l-43 -57 19 -38 c77 -150 152 -258 286 -412 268 -306
479 -450 945 -643 113 -47 266 -104 340 -127 140 -42 487 -116 694 -146 65
-10 119 -22 121 -28 2 -6 13 -64 25 -130 24 -129 77 -297 110 -351 12 -19 34
-45 49 -58 27 -22 28 -28 35 -142 22 -372 171 -817 356 -1064 l57 -76 -23
-155 c-27 -188 -44 -372 -44 -474 l0 -76 -92 6 c-268 17 -478 -142 -478 -362
0 -58 29 -162 60 -212 11 -18 20 -35 20 -37 0 -3 -73 -5 -162 -5 -458 0 -1002
-45 -1222 -101 -98 -25 -136 -44 -136 -68 0 -58 292 -105 740 -120 203 -6 206
-7 270 -38 258 -125 1079 -201 2205 -204 1295 -3 2589 117 2953 275 48 21 90
27 257 41 374 30 625 86 625 138 0 33 -169 76 -375 96 -138 14 -696 34 -787
29 -37 -2 -68 -2 -68 -1 0 1 18 32 40 68 67 110 120 243 145 365 4 19 19 57
34 85 53 102 35 238 -35 259 -20 6 -35 22 -48 48 -34 72 -108 98 -161 56 l-28
-22 -38 22 c-71 41 -167 22 -211 -42 -12 -17 -23 -33 -24 -35 -2 -2 -25 16
-51 39 -94 84 -257 140 -408 140 -78 0 -227 -25 -265 -45 -32 -17 -36 -14 -44
35 -6 34 -4 37 61 85 105 78 358 336 469 480 188 242 290 412 373 622 76 193
102 336 100 553 -1 164 -13 259 -44 350 l-23 68 116 22 c414 77 808 202 910
289 l22 19 -30 130 c-38 166 -38 173 -2 163 44 -13 90 -38 194 -108 l96 -64
38 16 c108 45 318 217 447 365 260 301 398 569 468 910 21 102 24 143 24 355
0 219 -2 247 -23 325 -59 219 -120 368 -215 528 -78 132 -180 233 -291 287
-69 35 -85 38 -174 42 -75 3 -108 0 -147 -14z m224 -74 c67 -15 114 -43 186
-110 135 -127 258 -381 331 -684 25 -105 26 -119 22 -320 -4 -163 -10 -234
-27 -319 -31 -153 -89 -322 -154 -451 -130 -260 -415 -597 -623 -736 l-67 -46
-74 53 c-100 72 -208 124 -260 127 -88 3 -102 -50 -58 -231 14 -57 25 -108 25
-114 0 -12 -330 -5 -361 7 -14 5 -9 20 34 93 136 237 258 590 296 862 25 177
51 425 56 550 9 194 42 543 65 690 20 123 53 251 83 320 55 129 230 278 367
314 55 14 77 13 159 -5z m-7523 -73 c121 -57 124 -62 174 -251 41 -156 66
-311 84 -530 9 -104 21 -246 27 -315 11 -135 51 -384 74 -465 8 -27 26 -113
40 -190 50 -275 185 -607 338 -833 42 -63 77 -116 77 -119 0 -14 -384 26 -556
58 -93 17 -121 27 -176 62 -168 107 -384 317 -552 537 -74 97 -181 273 -174
287 2 4 34 55 72 113 179 271 191 337 68 399 -75 37 -120 52 -222 71 l-85 15
-7 80 c-18 213 41 479 158 722 141 288 293 409 505 400 64 -3 90 -10 155 -41z
m4003 -748 c-26 -66 -34 -74 -25 -26 l7 36 -58 -13 c-32 -8 -96 -26 -141 -40
-46 -15 -86 -24 -88 -22 -9 9 273 112 318 116 4 1 -2 -23 -13 -51z m381 23 c0
-46 -81 -179 -161 -265 -45 -48 -83 -85 -86 -83 -2 3 23 44 55 93 33 49 77
120 97 158 l38 68 -41 -7 c-23 -4 -69 -15 -103 -25 -34 -11 -58 -15 -53 -10
19 18 196 82 247 89 4 1 7 -7 7 -18z m-3446 -651 c43 -69 119 -179 168 -245
l90 -120 -92 90 c-95 93 -169 183 -259 319 -67 99 -90 151 -134 307 -20 69
-39 134 -42 145 -4 10 38 -69 92 -176 55 -107 134 -251 177 -320z m3534 394
c219 -75 424 -185 572 -309 207 -173 377 -395 472 -617 49 -115 106 -325 129
-481 27 -172 32 -385 10 -411 -23 -27 -29 -4 -41 150 -15 202 -27 302 -42 364
l-13 55 -5 -100 -5 -99 -50 -38 c-145 -110 -515 -254 -706 -275 l-56 -6 -18
44 c-24 58 -32 296 -15 439 33 288 156 510 315 569 103 39 207 20 315 -57 28
-20 28 -19 -41 84 -134 201 -270 343 -422 445 -141 94 -247 149 -414 214 -68
26 -120 52 -117 56 8 14 18 12 132 -27z m-1574 -482 c293 -106 463 -439 443
-867 -10 -201 -49 -402 -91 -461 -23 -32 -168 -49 -406 -49 -158 1 -217 5
-312 23 -125 24 -274 69 -351 108 -43 23 -51 32 -88 112 -62 134 -72 185 -66
337 8 201 60 367 162 521 156 234 478 359 709 276z m1340 -627 c151 -28 281
-115 327 -217 31 -71 33 -192 3 -257 l-20 -44 1 104 c0 89 -3 112 -24 158
l-24 53 -15 -28 c-8 -16 -20 -32 -26 -36 -41 -28 -214 28 -261 84 -43 51 -26
96 41 108 l39 6 -70 23 c-38 12 -108 31 -155 41 l-85 19 97 0 c53 1 130 -6
172 -14z m1478 -889 c22 -28 52 -75 68 -105 31 -61 63 -161 52 -161 -16 1 -29
19 -64 90 -21 41 -64 118 -97 170 -33 52 -57 99 -54 104 6 9 15 0 95 -98z
m-3395 70 c35 -30 24 -46 -13 -17 -18 14 -41 21 -73 21 -33 0 -42 3 -31 10 29
18 87 11 117 -14z m17 -129 c23 -23 47 -60 54 -82 31 -98 142 -508 138 -512
-2 -2 -45 121 -96 273 -50 153 -99 289 -108 302 -9 14 -30 33 -47 43 -29 18
-29 19 -6 19 16 0 39 -15 65 -43z m1241 17 c111 -15 226 -18 785 -19 557 -1
671 -4 764 -18 60 -9 111 -19 114 -21 10 -11 -44 -149 -95 -240 -62 -113 -121
-193 -195 -266 -48 -47 -51 -49 -77 -36 -33 17 -116 105 -160 169 -21 31 -39
47 -50 45 -9 -2 -46 -36 -81 -77 -96 -109 -87 -108 -174 -22 -46 46 -76 69
-81 62 -10 -17 28 -87 85 -158 69 -87 82 -85 180 16 l76 80 45 -61 c45 -62
133 -142 169 -153 39 -13 168 104 246 224 l29 45 7 -82 c5 -45 14 -119 21
-165 l14 -84 -36 -41 c-34 -39 -43 -43 -156 -71 -238 -60 -445 -89 -820 -116
-301 -22 -551 -18 -960 16 -252 20 -545 77 -545 105 0 7 14 77 31 156 16 79
33 157 36 175 l6 32 61 -55 c33 -31 93 -72 133 -91 l72 -35 35 21 c42 26 96
89 175 205 l59 86 17 -27 c60 -92 233 -235 302 -249 26 -5 36 -1 71 36 55 58
108 158 92 173 -9 9 -27 -5 -77 -60 l-65 -72 -51 31 c-29 17 -104 85 -168 150
-64 65 -123 118 -131 118 -9 0 -46 -46 -84 -102 -73 -108 -144 -192 -176 -209
-16 -9 -30 -1 -89 46 -139 113 -235 260 -284 437 l-23 87 51 11 c116 23 215
29 487 25 193 -3 327 -10 415 -21z m2253 -309 c40 -43 43 -69 2 -30 -23 22
-41 29 -85 33 -55 4 -62 15 -21 32 33 14 68 2 104 -35z m-35 -66 c25 -11 71
-82 65 -99 -2 -6 -28 17 -58 50 -54 59 -56 71 -7 49z m57 -410 c-65 -316 -253
-648 -581 -1024 -97 -111 -338 -335 -361 -335 -3 0 -8 9 -11 20 -4 16 15 37
87 100 274 235 525 545 652 805 51 104 174 454 190 540 4 22 14 50 23 61 16
21 16 21 19 -21 2 -23 -7 -89 -18 -146z m-920 -269 c-51 -55 -139 -143 -196
-196 -121 -112 -151 -153 -134 -184 25 -46 82 -217 101 -304 40 -179 42 -517
4 -715 -61 -314 -259 -535 -514 -571 -41 -6 -75 -9 -76 -8 -2 3 -24 228 -34
338 -7 91 -32 137 -86 166 -22 11 -50 36 -63 55 -70 103 -144 134 -217 91 -16
-10 -50 -24 -75 -31 -25 -7 -62 -22 -82 -34 -32 -17 -42 -19 -63 -9 -39 18
-60 15 -93 -13 -17 -14 -33 -25 -37 -25 -4 0 -25 18 -46 40 -58 59 -136 107
-209 126 -36 10 -68 23 -72 29 -12 15 -9 366 3 490 21 225 40 359 61 442 l21
85 36 -6 c54 -8 287 -20 281 -13 -3 2 -54 23 -115 46 -142 54 -494 239 -495
262 0 3 35 0 78 -7 307 -54 665 -78 1062 -71 409 7 749 42 980 101 30 8 59 14
64 15 4 1 -33 -44 -84 -99z m-114 -793 c2 -162 28 -349 68 -480 10 -34 11 -47
3 -44 -20 6 -56 88 -84 192 -23 87 -27 119 -27 245 0 134 17 270 32 255 4 -3
7 -79 8 -168z m573 -492 c76 -18 159 -61 221 -115 42 -37 44 -40 28 -56 -16
-16 -19 -15 -58 20 -59 53 -186 112 -273 126 -68 12 -262 9 -327 -5 -18 -4
-15 0 10 11 19 9 55 20 80 24 79 13 251 11 319 -5z m695 -76 c16 -19 26 -42
26 -62 l-1 -32 -19 24 c-11 13 -20 31 -20 41 0 10 -7 23 -15 30 -8 7 -15 16
-15 21 0 18 19 8 44 -22z m-2924 -12 c24 -11 76 -53 115 -91 65 -66 70 -74 70
-114 0 -42 0 -43 -15 -21 -74 113 -160 200 -238 241 -35 19 -35 20 -7 13 17
-3 50 -16 75 -28z m2740 23 c13 -8 13 -11 -1 -25 -15 -15 -18 -15 -42 9 l-26
26 27 0 c15 0 34 -5 42 -10z m-2086 -32 c14 -6 33 -22 42 -36 15 -22 15 -26
-1 -41 -15 -15 -17 -15 -26 2 -6 10 -24 34 -41 53 -32 36 -23 45 26 22z m2406
-119 c0 -41 -15 -36 -28 10 -17 56 -15 70 8 42 11 -13 20 -36 20 -52z m-2590
42 c0 -5 3 -16 6 -25 4 -10 -5 -20 -25 -30 -38 -20 -38 -20 -44 4 -3 14 3 26
20 40 28 22 43 25 43 11z m279 -70 c-3 -6 -10 -7 -18 -2 -7 5 -10 14 -6 21 9
14 29 -2 24 -19z m112 -54 c8 -29 8 -47 0 -64 -13 -28 -35 -31 -26 -3 7 23
-12 90 -26 90 -14 0 -11 28 4 33 19 7 36 -12 48 -56z m2103 18 c15 -97 -28
-278 -98 -415 -52 -102 -184 -289 -256 -361 -61 -61 -163 -128 -220 -144 -16
-4 -6 6 27 29 166 114 378 396 452 600 43 120 75 283 62 313 -9 20 -8 23 8 23
14 0 20 -10 25 -45z m-2112 -215 c18 -123 2 -301 -42 -460 -24 -85 -96 -242
-128 -280 -19 -22 -18 -16 8 48 38 95 94 270 111 347 8 35 13 130 13 228 1
143 3 167 16 165 9 -2 18 -20 22 -48z"/>
<path d="M6278 6933 c-8 -10 -35 -51 -58 -92 -33 -55 -41 -77 -34 -89 16 -25
31 -25 54 0 31 34 94 164 87 182 -8 21 -30 20 -49 -1z"/>
<path d="M6655 6791 c-123 -58 -376 -278 -445 -387 -38 -60 -40 -110 -6 -125
20 -10 45 0 190 74 341 175 489 299 472 393 -15 77 -104 96 -211 45z"/>
<path d="M3910 7182 c-93 -31 -157 -70 -228 -137 -90 -84 -128 -159 -150 -290
-21 -133 -8 -228 47 -340 95 -191 196 -252 459 -276 187 -17 393 0 469 40 42
21 106 106 134 179 31 77 38 257 15 356 -45 192 -195 368 -382 446 -71 30 -90
34 -194 37 -92 2 -126 -1 -170 -15z m142 -213 c49 -26 61 -125 28 -230 -48
-155 -191 -254 -273 -189 -105 83 -18 359 134 419 33 13 86 13 111 0z m213
-354 c29 -28 31 -45 10 -85 -37 -71 -140 -80 -166 -14 -19 53 43 123 109 124
13 0 34 -11 47 -25z"/>
<path d="M5275 4399 c-83 -20 -70 -47 26 -55 37 -3 85 -15 114 -29 59 -29 140
-94 128 -105 -4 -4 -44 -15 -88 -25 -44 -9 -88 -21 -97 -26 -27 -15 -22 -47
11 -63 47 -25 89 -82 111 -152 29 -95 28 -105 -12 -93 -84 25 -118 27 -128 9
-13 -24 13 -111 40 -135 31 -28 47 -7 33 45 -5 22 -8 40 -5 40 3 0 29 -7 58
-16 74 -24 84 -17 84 56 0 71 -28 157 -70 217 -16 23 -26 44 -22 47 4 2 34 9
67 16 121 25 140 53 86 127 -51 70 -134 122 -229 142 -29 6 -56 11 -60 10 -4
-1 -25 -5 -47 -10z"/>
<path d="M1265 1750 c-60 -9 -157 -45 -205 -75 -51 -32 -119 -109 -143 -163
-30 -65 -30 -171 0 -228 25 -48 86 -105 142 -134 22 -11 100 -36 173 -56 73
-20 147 -43 163 -51 34 -17 75 -52 75 -65 0 -4 -19 -18 -42 -30 -67 -34 -162
-30 -260 10 -98 41 -140 42 -179 3 -96 -97 48 -259 259 -291 79 -13 171 -1
256 31 228 85 281 331 104 484 -75 64 -161 100 -318 130 -97 19 -168 47 -176
70 -16 41 67 139 151 176 24 11 78 24 121 29 46 6 85 17 96 27 45 41 -1 115
-83 132 -55 12 -61 12 -134 1z"/>
<path d="M2714 1721 c-61 -37 -188 -316 -287 -631 -68 -215 -67 -213 -56 -253
20 -74 101 -113 172 -84 46 20 66 53 96 160 20 71 28 87 47 91 39 10 226 27
239 22 7 -2 25 -36 40 -75 35 -93 63 -132 108 -154 94 -47 192 44 168 155 -17
73 -164 414 -231 535 -62 111 -86 142 -168 216 -48 42 -80 47 -128 18z m146
-508 c0 -2 -29 -3 -64 -3 l-65 0 25 73 c13 39 27 79 30 87 3 9 19 -19 40 -69
19 -47 34 -86 34 -88z"/>
<path d="M5708 1685 c-39 -22 -69 -93 -144 -345 -37 -124 -70 -229 -74 -233
-4 -5 -11 9 -15 30 -22 120 -106 304 -162 353 -47 42 -103 42 -144 1 -17 -17
-29 -40 -29 -55 0 -14 -22 -65 -48 -113 -27 -49 -61 -115 -75 -147 -15 -32
-29 -57 -31 -55 -2 2 -34 78 -71 169 -111 273 -149 330 -221 330 -57 0 -84
-36 -84 -108 0 -96 38 -227 187 -647 50 -143 57 -153 106 -176 81 -36 152 -17
185 49 11 20 45 103 77 184 32 81 60 146 62 144 2 -2 19 -64 37 -137 19 -74
38 -146 44 -160 18 -44 62 -88 102 -100 34 -10 44 -9 96 15 101 47 118 71 193
289 81 234 124 425 125 552 1 101 -17 149 -60 165 -30 12 -23 12 -56 -5z"/>
<path d="M3312 1663 c-21 -8 -42 -60 -42 -103 0 -23 11 -76 25 -118 33 -100
144 -323 192 -386 21 -27 42 -54 46 -60 5 -6 -10 -59 -37 -128 -50 -129 -53
-143 -32 -193 17 -41 60 -65 117 -65 83 0 118 65 248 462 113 344 126 397 122
511 -1 36 -34 67 -71 67 -46 0 -95 -59 -160 -195 -31 -66 -60 -130 -64 -142
-4 -13 -11 -23 -14 -23 -4 0 -43 65 -86 145 -95 174 -146 235 -197 234 -19 0
-40 -3 -47 -6z"/>
<path d="M2093 1649 c-109 -10 -335 -45 -379 -60 -52 -17 -79 -53 -79 -109 0
-40 5 -54 29 -79 38 -40 66 -44 159 -26 43 8 85 15 93 15 12 0 14 -43 14 -262
0 -231 2 -267 18 -297 25 -50 65 -76 116 -75 89 2 120 50 130 199 6 94 -8 420
-19 457 -5 13 4 17 47 23 110 15 168 57 168 120 0 62 -71 107 -165 104 -22 -1
-81 -5 -132 -10z"/>
<path d="M6300 1653 c-65 -12 -213 -53 -242 -67 -43 -20 -68 -63 -68 -113 0
-22 -7 -84 -15 -139 -18 -119 -38 -513 -30 -569 14 -87 80 -145 165 -145 49 0
258 45 310 66 105 44 128 163 41 221 -42 28 -66 29 -177 3 -48 -11 -89 -19
-91 -16 -2 2 -1 30 2 63 l7 59 85 29 c107 36 153 75 153 129 0 28 -7 45 -31
68 -30 31 -30 31 -120 26 l-89 -5 0 63 0 63 43 11 c178 47 202 55 232 81 18
16 35 41 38 57 7 39 -16 88 -52 106 -29 15 -104 19 -161 9z"/>
<path d="M7443 1639 c-61 -10 -160 -48 -202 -78 -16 -12 -38 -21 -48 -21 -24
0 -58 -35 -73 -75 -15 -38 -14 -219 1 -333 15 -118 76 -360 101 -400 39 -63
110 -79 169 -39 41 27 61 77 53 131 l-6 39 46 -27 c170 -100 323 -100 356 -1
25 76 -11 125 -114 156 -67 20 -156 60 -184 81 -9 8 -1 20 33 50 57 50 128
150 145 203 20 60 16 145 -8 192 -49 96 -148 141 -269 122z m61 -195 c26 -10
18 -39 -24 -87 -44 -50 -118 -112 -125 -105 -3 3 -9 29 -15 59 -6 30 -13 61
-15 70 -10 30 134 80 179 63z"/>
<path d="M8066 1614 c-72 -26 -95 -62 -69 -111 11 -22 12 -40 4 -93 -28 -177
-19 -616 13 -678 28 -55 92 -80 153 -59 25 8 55 10 88 5 67 -10 193 6 287 38
145 48 257 143 299 253 17 45 20 72 17 137 -12 230 -220 430 -529 508 -79 20
-210 20 -263 0z m262 -236 c271 -106 369 -308 193 -398 -56 -28 -152 -50 -219
-50 l-60 0 -7 158 c-6 149 -19 276 -31 315 -5 15 -1 17 23 11 15 -4 61 -20
101 -36z"/>
<path d="M6773 1545 c-54 -38 -78 -211 -71 -527 4 -186 7 -219 25 -258 25 -56
42 -70 91 -77 52 -7 99 18 118 62 12 29 12 71 4 257 -18 424 -25 479 -67 528
-28 34 -65 39 -100 15z"/>
</g>
</svg>
